<svg width="64" height="64" viewBox="0 0 64 64" version="1.1" xmlns="http://www.w3.org/2000/svg" xmlns:xlink="http://www.w3.org/1999/xlink">
<title>error</title>
<desc>Created using Figma</desc>
<g id="Canvas" transform="matrix(2 0 0 2 -1220 566)">
<g id="icon/solid/error">
<g id="error">
<use xlink:href="#path0_fill" transform="translate(618 -274)"/>
</g>
<mask id="mask0_outline" mask-type="alpha">
<g id="error">
<use xlink:href="#path0_fill" transform="translate(618 -274)" fill="#FFFFFF"/>
</g>
</mask>
<g id="Color/State/Error" mask="url(#mask0_outline)">
<g id="color">
<use xlink:href="#path1_fill" transform="translate(587 -306)" fill="#0E3757"/>
</g>
</g>
</g>
</g>
<defs>
<path id="path0_fill" fill-rule="evenodd" d="M 15.8583 12.5646L 8.90736 0.523287C 8.50445 -0.174429 7.49555 -0.174429 7.09264 0.523287L 0.141684 12.5646C -0.261223 13.2623 0.243229 14.1369 1.04904 14.1369L 14.951 14.1369C 15.7568 14.1369 16.2612 13.2623 15.8583 12.5646L 15.8583 12.5646ZM 8.00981 4.23132C 8.4553 4.23132 8.81562 4.60147 8.80252 5.04696L 8.67149 9.61979C 8.66166 9.98011 8.36685 10.2651 8.00653 10.2651C 7.64621 10.2651 7.3514 9.97684 7.34157 9.61979L 7.21382 5.04696C 7.20399 4.60147 7.56104 4.23132 8.00981 4.23132L 8.00981 4.23132ZM 8.00003 12.5024C 7.54471 12.5024 7.17456 12.1322 7.17456 11.6769C 7.17456 11.2216 7.54471 10.8514 8.00003 10.8514C 8.45534 10.8514 8.82549 11.2216 8.82549 11.6769C 8.82549 12.1322 8.45534 12.5024 8.00003 12.5024L 8.00003 12.5024Z"/>
<path id="path1_fill" fill-rule="evenodd" d="M 0 0L 80 0L 80 80L 0 80L 0 0Z"/>
</defs>
</svg>
