<svg width="64" height="64" viewBox="0 0 64 64" version="1.1" xmlns="http://www.w3.org/2000/svg" xmlns:xlink="http://www.w3.org/1999/xlink">
<title>required</title>
<desc>Created using Figma</desc>
<g id="Canvas" transform="matrix(2 0 0 2 -1136 566)">
<g id="icon/solid/required">
<g id="required">
<use xlink:href="#path0_fill" transform="translate(580 -272)"/>
</g>
<mask id="mask0_outline" mask-type="alpha">
<g id="required">
<use xlink:href="#path0_fill" transform="translate(580 -272)" fill="#FFFFFF"/>
</g>
</mask>
<g id="Color/State/Error" mask="url(#mask0_outline)">
<g id="color">
<use xlink:href="#path1_fill" transform="translate(547 -311)" fill="#0E3757"/>
</g>
</g>
</g>
</g>
<defs>
<path id="path0_fill" fill-rule="evenodd" d="M 7.9025 6.75897C 7.76776 6.99349 7.52305 7.12312 7.27106 7.12312C 7.14762 7.12312 7.02235 7.09181 6.90764 7.02553L 4.7293 5.7674L 4.7293 8.28367C 4.7293 8.68569 4.40302 9.01197 4.001 9.01197C 3.59898 9.01197 3.2727 8.68569 3.2727 8.28367L 3.2727 5.76703L 1.09327 7.02553C 0.978564 7.09181 0.853296 7.12312 0.72985 7.12312C 0.478223 7.12312 0.23315 6.99349 0.098415 6.75897C -0.102595 6.41048 0.0164814 5.96513 0.364972 5.76485L 2.54368 4.50635L 0.364244 3.24785C 0.0157531 3.04647 -0.103324 2.60185 0.0976867 2.25336C 0.298697 1.90486 0.744416 1.78542 1.09254 1.9868L 3.27161 3.24493L 3.27161 0.728299C 3.27161 0.326278 3.59789 0 3.99991 0C 4.40193 0 4.72821 0.326278 4.72821 0.728299L 4.72821 3.24457L 6.90655 1.98643C 7.25468 1.78506 7.70149 1.9045 7.90141 2.25299C 8.10242 2.60148 7.98334 3.04684 7.63485 3.24748L 5.45687 4.50598L 7.63521 5.76412C 7.9837 5.96513 8.10351 6.41048 7.9025 6.75897L 7.9025 6.75897Z"/>
<path id="path1_fill" fill-rule="evenodd" d="M 0 0L 80 0L 80 80L 0 80L 0 0Z"/>
</defs>
</svg>
