<svg xmlns="http://www.w3.org/2000/svg" viewBox="0 0 60 43" width="60" height="43">
	<defs>
	</defs>
	<path id="icon/solid/speach-marks" style="fill: #f56975" d="M9.22,13.09c-2.81,3.66 -4.22,7.61 -4.22,11.84c0,3.6 1.14,6.62 3.43,9.08c2.29,2.45 4.85,3.68 7.68,3.68c2.33,0 4.27,-0.73 5.84,-2.19c1.57,-1.46 2.35,-3.21 2.35,-5.24c0,-1.86 -0.65,-3.44 -1.94,-4.73c-1.29,-1.29 -2.8,-1.94 -4.54,-1.94c-0.76,0 -1.61,0.16 -2.54,0.48c-0.93,0.32 -1.67,0.48 -2.22,0.48c-0.55,0 -1.02,-0.3 -1.4,-0.89c-0.42,-0.55 -0.63,-1.57 -0.63,-3.05c0,-2.5 0.8,-4.8 2.41,-6.92c1.61,-2.12 4.27,-4.15 8,-6.09v-2.6c-5.33,1.74 -9.41,4.43 -12.22,8.09zM39.66,12.97c-2.84,3.66 -4.25,7.71 -4.25,12.16c0,3.6 1.12,6.6 3.36,9.01c2.24,2.41 4.76,3.62 7.55,3.62c2.37,0 4.37,-0.76 6,-2.29c1.63,-1.52 2.44,-3.32 2.44,-5.4c0,-1.82 -0.65,-3.35 -1.94,-4.6c-1.29,-1.25 -2.8,-1.87 -4.54,-1.87c-0.93,0 -1.86,0.17 -2.79,0.51c-0.93,0.34 -1.63,0.51 -2.09,0.51c-0.51,0 -0.99,-0.3 -1.46,-0.89c-0.47,-0.59 -0.7,-1.48 -0.7,-2.67c0,-2.62 0.68,-4.91 2.03,-6.86c1.35,-1.95 4.17,-4.15 8.44,-6.6v-2.41c-5.21,1.52 -9.23,4.12 -12.06,7.78z" />
</svg>