<svg width="100" height="100" viewBox="0 0 100 100" version="1.1" xmlns="http://www.w3.org/2000/svg" xmlns:xlink="http://www.w3.org/1999/xlink">
<title>emblem</title>
<desc>Created using Figma</desc>
<g id="Canvas" transform="matrix(2 0 0 2 -1166 1330)">
<g id="brand/logo/emblem">
<g id="big-anchor">
<g id="XMLID_3_">
<use xlink:href="#path0_fill" transform="translate(587 -665)" fill="#F56A75"/>
</g>
</g>
</g>
</g>
<defs>
<path id="path0_fill" fill-rule="evenodd" d="M 40.4199 29.1412L 41.9814 37.5734C 42.0728 38.067 41.821 38.56 41.3719 38.7659C 40.9232 38.9727 40.395 38.8381 40.0931 38.4408L 38.4131 36.2294C 35.1285 41.6575 29.9631 46.2028 24.0063 47.3815L 21.7521 49.682C 21.3365 50.106 20.6631 50.106 20.2468 49.682L 17.9926 47.3815C 12.0359 46.2019 6.87122 41.6575 3.58667 36.2294L 1.90674 38.4408C 1.6048 38.8381 1.0766 38.9727 0.627808 38.7659C 0.179016 38.5601 -0.0727539 38.0671 0.0186157 37.5735L 1.58026 29.1413C 1.64545 28.7918 1.87341 28.4967 2.19196 28.3517C 2.5097 28.2057 2.87744 28.2292 3.17615 28.4124L 10.3775 32.8427C 10.7994 33.1021 10.9915 33.6226 10.843 34.1008C 10.6952 34.58 10.2448 34.8918 9.75397 34.8571L 6.94122 34.6568C 9.62677 38.3404 13.6691 39.8522 18.3056 40.2397L 18.3056 16.1167L 15.9901 16.1167C 15.6168 16.4004 15.1577 16.5739 14.6566 16.5739C 13.4166 16.5739 12.4109 15.5482 12.4109 14.2828C 12.4109 13.0166 13.4166 11.9911 14.6566 11.9911C 15.1586 11.9911 15.6176 12.1654 15.991 12.4491L 18.3056 12.4491L 18.3056 9.13593C 16.9879 8.24182 16.1157 6.71619 16.1157 4.98468C 16.1157 2.23657 18.3073 0 21.0001 0C 23.693 0 25.8843 2.23657 25.8842 4.98468C 25.8842 6.71619 25.0121 8.24182 23.6943 9.13593L 23.6943 12.449L 26.009 12.449C 26.3824 12.1653 26.8416 11.991 27.3436 11.991C 28.5835 11.991 29.5892 13.0165 29.5892 14.2827C 29.5892 15.5482 28.5835 16.5737 27.3436 16.5737C 26.8423 16.5737 26.3834 16.4003 26.0099 16.1166L 23.6944 16.1166L 23.6944 40.2396C 28.331 39.8521 32.3734 38.3403 35.059 34.6567L 32.2462 34.8569C 31.7552 34.8918 31.3051 34.5798 31.1571 34.1007C 31.0086 33.6224 31.2009 33.1019 31.6227 32.8425L 38.824 28.4123C 39.1226 28.2291 39.4904 28.2057 39.8082 28.3516C 40.1267 28.4966 40.3547 28.7917 40.4199 29.1412ZM 22.2908 4.98468C 22.2908 4.2583 21.7119 3.66736 21.0001 3.66736C 20.2884 3.66736 19.7094 4.2583 19.7092 4.98468C 19.7092 5.711 20.2884 6.30194 21.0001 6.30194C 21.7119 6.30194 22.2908 5.711 22.2908 4.98468Z"/>
</defs>
</svg>
