<svg width="240" height="100" viewBox="0 0 240 100" version="1.1" xmlns="http://www.w3.org/2000/svg" xmlns:xlink="http://www.w3.org/1999/xlink">
<title>primary</title>
<desc>Created using Figma</desc>
<g id="Canvas" transform="matrix(2 0 0 2 -882 1330)">
<g id="brand/logo/primary">
<g id="big-anchor">
<g id="XMLID_3_">
<use xlink:href="#path0_fill" transform="translate(441 -665)" fill="#F56A75"/>
</g>
</g>
<g id="Code">
<use xlink:href="#path1_fill" transform="translate(494.449 -658.328)" fill="#0E3757"/>
</g>
<g id="TEST" opacity="0.5">
<use xlink:href="#path2_fill" transform="translate(494.182 -630.654)" fill="#0E3757"/>
</g>
</g>
</g>
<defs>
<path id="path0_fill" fill-rule="evenodd" d="M 40.4198 29.1412L 41.9814 37.5734C 42.0728 38.067 41.821 38.56 41.3719 38.7659C 40.9232 38.9727 40.395 38.8381 40.0931 38.4408L 38.4131 36.2294C 35.1285 41.6575 29.9631 46.2028 24.0063 47.3815L 21.7521 49.682C 21.3366 50.106 20.6631 50.106 20.2468 49.682L 17.9926 47.3815C 12.0359 46.2019 6.87122 41.6575 3.58667 36.2294L 1.90674 38.4408C 1.6048 38.8381 1.0766 38.9727 0.627808 38.7659C 0.179016 38.5601 -0.0727844 38.0671 0.0186157 37.5735L 1.58026 29.1413C 1.64545 28.7918 1.87341 28.4967 2.19193 28.3517C 2.50974 28.2057 2.87744 28.2292 3.17615 28.4124L 10.3775 32.8427C 10.7993 33.1021 10.9915 33.6226 10.843 34.1008C 10.6952 34.58 10.2448 34.8918 9.75397 34.8571L 6.94122 34.6568C 9.62677 38.3404 13.6691 39.8522 18.3056 40.2397L 18.3056 16.1167L 15.9901 16.1167C 15.6168 16.4004 15.1577 16.5739 14.6566 16.5739C 13.4166 16.5739 12.4109 15.5482 12.4109 14.2828C 12.4109 13.0166 13.4166 11.9911 14.6566 11.9911C 15.1586 11.9911 15.6176 12.1654 15.991 12.4491L 18.3056 12.4491L 18.3056 9.13593C 16.9879 8.24182 16.1157 6.71619 16.1157 4.98468C 16.1157 2.23657 18.3073 0 21.0001 0C 23.693 0 25.8843 2.23657 25.8842 4.98468C 25.8842 6.71619 25.0121 8.24182 23.6943 9.13593L 23.6943 12.449L 26.009 12.449C 26.3824 12.1653 26.8416 11.991 27.3436 11.991C 28.5835 11.991 29.5892 13.0165 29.5892 14.2827C 29.5892 15.5482 28.5835 16.5737 27.3436 16.5737C 26.8424 16.5737 26.3834 16.4003 26.01 16.1166L 23.6944 16.1166L 23.6944 40.2396C 28.331 39.8521 32.3733 38.3403 35.059 34.6567L 32.2462 34.8569C 31.7553 34.8918 31.305 34.5798 31.1571 34.1007C 31.0086 33.6224 31.2008 33.1019 31.6227 32.8425L 38.8239 28.4123C 39.1226 28.2291 39.4904 28.2057 39.8082 28.3516C 40.1267 28.4966 40.3546 28.7917 40.4198 29.1412ZM 22.2908 4.98468C 22.2908 4.2583 21.7118 3.66736 21.0001 3.66736C 20.2884 3.66736 19.7093 4.2583 19.7092 4.98468C 19.7092 5.711 20.2884 6.30194 21.0001 6.30194C 21.7118 6.30194 22.2908 5.711 22.2908 4.98468Z"/>
<path id="path1_fill" fill-rule="evenodd" d="M 15.2441 14.7246L 15.2715 14.8066C 15.3079 16.821 14.654 18.4593 13.3096 19.7217C 11.9652 20.9841 10.1445 21.6152 7.84766 21.6152C 5.52343 21.6152 3.63445 20.8337 2.18066 19.2705C 0.726881 17.7073 0 15.709 0 13.2754L 0 9.48828C 0 7.06379 0.717766 5.06544 2.15332 3.49316C 3.58887 1.92089 5.45507 1.13477 7.75195 1.13477C 10.1035 1.13477 11.956 1.75227 13.3096 2.9873C 14.6631 4.22234 15.3216 5.88345 15.2852 7.9707L 15.2578 8.05273L 12.0449 8.05273C 12.0449 6.71288 11.6826 5.66927 10.958 4.92188C 10.2334 4.17448 9.16472 3.80078 7.75195 3.80078C 6.39387 3.80078 5.31608 4.33854 4.51855 5.41406C 3.72102 6.48959 3.32227 7.83853 3.32227 9.46094L 3.32227 13.2754C 3.32227 14.916 3.73014 16.2741 4.5459 17.3496C 5.36166 18.4251 6.46223 18.9629 7.84766 18.9629C 9.22397 18.9629 10.2676 18.5938 10.9785 17.8555C 11.6895 17.1172 12.0449 16.0736 12.0449 14.7246L 15.2441 14.7246ZM 17.4863 13.7949C 17.4863 11.5983 18.0879 9.79363 19.291 8.38086C 20.5124 6.96809 22.1667 6.26172 24.2539 6.26172C 26.3776 6.26172 28.041 6.96809 29.2441 8.38086C 30.4564 9.78451 31.0625 11.5892 31.0625 13.7949L 31.0625 14.082C 31.0625 16.306 30.4564 18.1198 29.2441 19.5234C 28.041 20.918 26.3867 21.6152 24.2812 21.6152C 22.1667 21.6152 20.5033 20.9134 19.291 19.5098C 18.0879 18.1061 17.4863 16.2969 17.4863 14.082L 17.4863 13.7949ZM 20.8086 14.082C 20.8086 15.5221 21.0911 16.6979 21.6562 17.6094C 22.2122 18.5117 23.0872 18.9629 24.2812 18.9629C 25.4388 18.9629 26.3047 18.5117 26.8789 17.6094C 27.4622 16.6979 27.7539 15.5221 27.7539 14.082L 27.7539 13.7949C 27.7539 12.3822 27.4622 11.2201 26.8789 10.3086C 26.3047 9.38802 25.4297 8.92773 24.2539 8.92773C 23.0963 8.92773 22.2305 9.38802 21.6562 10.3086C 21.0911 11.2292 20.8086 12.3913 20.8086 13.7949L 20.8086 14.082ZM 33.3457 14.1367C 33.3457 11.776 33.8516 9.87338 34.8633 8.42871C 35.875 6.98404 37.2969 6.26172 39.1289 6.26172C 39.931 6.26172 40.6488 6.4235 41.2822 6.74707C 41.9157 7.07064 42.4648 7.5332 42.9297 8.13477L 42.9297 0L 46.252 0L 46.252 21.3281L 43.4629 21.3281L 43.1348 19.4961C 42.6608 20.1888 42.0911 20.7152 41.4258 21.0752C 40.7604 21.4352 39.9857 21.6152 39.1016 21.6152C 37.2878 21.6152 35.875 20.9544 34.8633 19.6328C 33.8516 18.3112 33.3457 16.5749 33.3457 14.4238L 33.3457 14.1367ZM 36.668 14.4238C 36.668 15.791 36.93 16.8802 37.4541 17.6914C 37.9782 18.5026 38.8099 18.9082 39.9492 18.9082C 40.651 18.9082 41.2458 18.7578 41.7334 18.457C 42.221 18.1562 42.6198 17.7279 42.9297 17.1719L 42.9297 10.7188C 42.6198 10.1719 42.2188 9.74577 41.7266 9.44043C 41.2344 9.13509 40.651 8.98242 39.9766 8.98242C 38.8463 8.98242 38.0124 9.45865 37.4746 10.4111C 36.9368 11.3636 36.668 12.6055 36.668 14.1367L 36.668 14.4238ZM 56.1641 21.6153C 54.0677 21.6153 52.3975 20.9294 51.1533 19.5576C 49.9092 18.1859 49.2871 16.4245 49.2871 14.2735L 49.2871 13.7266C 49.2871 11.5755 49.9046 9.79137 51.1396 8.37405C 52.3747 6.95672 53.9219 6.25263 55.7812 6.26175C 57.7774 6.26175 59.3063 6.86558 60.3682 8.07327C 61.43 9.28096 61.9609 10.9011 61.9609 12.9336L 61.9609 14.8887L 52.7324 14.8887L 52.7051 14.9571C 52.7598 16.1328 53.1038 17.0944 53.7373 17.8418C 54.3708 18.5892 55.248 18.9629 56.3691 18.9629C 57.2624 18.9629 58.028 18.8535 58.666 18.6348C 59.304 18.416 59.9193 18.1016 60.5117 17.6914L 61.5781 19.8653C 61.0221 20.3575 60.2839 20.7722 59.3633 21.1094C 58.4427 21.4466 57.3763 21.6153 56.1641 21.6153ZM 55.7812 8.92773C 54.9609 8.92773 54.2865 9.25358 53.7578 9.90527C 53.2292 10.557 52.901 11.3841 52.7734 12.3867L 52.8008 12.4551L 58.666 12.4551L 58.666 12.1133C 58.666 11.1745 58.4268 10.4089 57.9482 9.81641C 57.4697 9.22396 56.7474 8.92773 55.7812 8.92773Z"/>
<path id="path2_fill" fill-rule="evenodd" d="M 6.58008 1.26562L 4.00195 1.26562L 4.00195 8.6543L 2.57812 8.6543L 2.57812 1.26562L 0 1.26562L 0 0.123047L 6.58008 0.123047L 6.58008 1.26562ZM 24.8496 4.81641L 21.1172 4.81641L 21.1172 7.51758L 25.4473 7.51758L 25.4473 8.6543L 19.6934 8.6543L 19.6934 0.123047L 25.4062 0.123047L 25.4062 1.26562L 21.1172 1.26562L 21.1172 3.67383L 24.8496 3.67383L 24.8496 4.81641ZM 43.2715 6.46289C 43.2715 6.10742 43.1396 5.81641 42.8759 5.58984C 42.6123 5.36328 42.1465 5.16016 41.4785 4.98047C 40.5254 4.73047 39.792 4.39942 39.2783 3.9873C 38.7646 3.57519 38.5078 3.03516 38.5078 2.36719C 38.5078 1.67968 38.792 1.11328 39.3603 0.667969C 39.9287 0.222654 40.6621 0 41.5605 0C 42.498 0 43.2509 0.251951 43.8193 0.755859C 44.3877 1.25977 44.6621 1.86523 44.6426 2.57227L 44.6308 2.60742L 43.2656 2.60742C 43.2656 2.16992 43.1172 1.81543 42.8203 1.54395C 42.5234 1.27246 42.0996 1.13672 41.5488 1.13672C 41.0293 1.13672 40.6299 1.25 40.3506 1.47656C 40.0713 1.70313 39.9316 1.99609 39.9316 2.35547C 39.9316 2.67969 40.083 2.94922 40.3857 3.16406C 40.6885 3.37891 41.1894 3.58203 41.8886 3.77344C 42.8066 4.01953 43.5039 4.35937 43.9804 4.79297C 44.457 5.22656 44.6953 5.77929 44.6953 6.45117C 44.6953 7.16211 44.4111 7.72754 43.8427 8.14746C 43.2744 8.56738 42.5273 8.77734 41.6015 8.77734C 40.7109 8.77734 39.9297 8.54199 39.2578 8.07129C 38.5859 7.60058 38.2597 6.95508 38.2793 6.13477L 38.291 6.09961L 39.6621 6.09961C 39.6621 6.61914 39.8418 7.00683 40.2011 7.2627C 40.5605 7.51856 41.0273 7.64648 41.6015 7.64648C 42.1289 7.64648 42.539 7.54004 42.832 7.32715C 43.125 7.11426 43.2715 6.82617 43.2715 6.46289ZM 64.0254 1.26562L 61.4473 1.26562L 61.4473 8.6543L 60.0234 8.6543L 60.0234 1.26562L 57.4453 1.26562L 57.4453 0.123047L 64.0254 0.123047L 64.0254 1.26562Z"/>
</defs>
</svg>
